<svg xmlns="http://www.w3.org/2000/svg" xmlns:xlink="http://www.w3.org/1999/xlink" width="50" height="50" viewBox="0 0 50 50">
  <defs>
    <clipPath id="clip-path">
      <rect id="Rectangle_9124" data-name="Rectangle 9124" width="50" height="50" transform="translate(0.5)" fill="#fff" stroke="#707070" stroke-width="1"/>
    </clipPath>
    <clipPath id="clip-path-2">
      <rect id="Rectangle_9123" data-name="Rectangle 9123" width="46.284" height="48.087" fill="#fff"/>
    </clipPath>
  </defs>
  <g id="Mask_Group_1126" data-name="Mask Group 1126" transform="translate(-0.5)" clip-path="url(#clip-path)">
    <g id="Group_9090" data-name="Group 9090" transform="translate(1.019 0.957)">
      <g id="Group_9089" data-name="Group 9089" transform="translate(0 0)" clip-path="url(#clip-path-2)">
        <path id="Path_23531" data-name="Path 23531" d="M8.183,15.169A5.047,5.047,0,0,1,8.5,19.811c-.539,1.335-1.121,2.653-1.638,4a3.894,3.894,0,0,0,2.733,5.1,3.556,3.556,0,0,0,3.67-1.283,3.7,3.7,0,0,0,.632-4c-.567-1.4-1.175-2.787-1.694-4.207a4.69,4.69,0,0,1,.357-4.14,5.584,5.584,0,0,1,.8,1.181,2.449,2.449,0,0,1,.026,1.233,3.518,3.518,0,0,0,.387,2.032c.506,1.229,1.037,2.447,1.508,3.689A5.094,5.094,0,0,1,13.9,29.087a5.321,5.321,0,0,1-5.858.755,5.009,5.009,0,0,1-2.82-5.1,10.562,10.562,0,0,1,.71-2.318c.467-1.244.993-2.467,1.469-3.707a1.358,1.358,0,0,0,.03-.628,5.565,5.565,0,0,1,.747-2.923" transform="translate(6.041 17.656)" fill="#fff"/>
        <path id="Path_23532" data-name="Path 23532" d="M14.271,15.27a4.7,4.7,0,0,1,.329,4.763c-.506,1.227-1.037,2.445-1.519,3.683a3.718,3.718,0,0,0,.848,4.146,3.531,3.531,0,0,0,4.014.889,3.866,3.866,0,0,0,2.45-3.532,7.158,7.158,0,0,0-.9-2.995c-.361-.928-.777-1.835-1.112-2.772a5.007,5.007,0,0,1,.437-4.3c.387,1.084.965,1.954.7,3.051a.951.951,0,0,0,.069.526c.573,1.439,1.145,2.88,1.746,4.306a5.2,5.2,0,1,1-9.638.461c.3-.833.658-1.645,1-2.463a8.717,8.717,0,0,0,1-3.791,6.338,6.338,0,0,1,.586-1.978" transform="translate(13.243 17.642)" fill="#fff"/>
        <path id="Path_23533" data-name="Path 23533" d="M11.245,15.217a5.133,5.133,0,0,1-.651-2.307,5.066,5.066,0,0,0-.582-2.562C9.534,9.169,9,8.009,8.582,6.808A5.048,5.048,0,0,1,12,.232a5.213,5.213,0,0,1,6.557,3.635,5.385,5.385,0,0,1-.329,3.516c-.5,1.231-1.047,2.445-1.506,3.692a4.478,4.478,0,0,0-.286,1.664,5.3,5.3,0,0,1-.656,2.346c-.067.013-.136.024-.2.035a15.06,15.06,0,0,1-.534-1.837,5.372,5.372,0,0,1,.493-3.019c.528-1.218,1.041-2.445,1.513-3.687A3.8,3.8,0,1,0,9.832,4.192a3.561,3.561,0,0,0,.1,2.391c.513,1.266,1.03,2.53,1.571,3.783a5,5,0,0,1-.258,4.851" transform="translate(9.645 0.009)" fill="#fff"/>
        <path id="Path_23534" data-name="Path 23534" d="M21.843,15.116a4.8,4.8,0,0,1-.409-4.135c.53-1.4,1.125-2.77,1.72-4.142a3.817,3.817,0,0,0-.79-4.3,3.747,3.747,0,0,0-4.034-.892A3.8,3.8,0,0,0,15.916,5.3a13.464,13.464,0,0,0,.863,2.893c.437,1.27,1.008,2.5,1.344,3.8a4.255,4.255,0,0,1-.656,3.226,5.76,5.76,0,0,1-.692-2.231,5.989,5.989,0,0,0-.32-1.937c-.513-1.422-1.179-2.789-1.684-4.213A5.071,5.071,0,0,1,17.234.6a5.248,5.248,0,0,1,6.654,1.515,5.142,5.142,0,0,1,.554,5.161c-.485,1.216-1.071,2.4-1.491,3.633a19.887,19.887,0,0,0-.359,2.272c-.138.658-.374,1.3-.567,1.943l-.182-.011" transform="translate(16.844 0.01)" fill="#fff"/>
        <path id="Path_23535" data-name="Path 23535" d="M9.447,15.122a4.879,4.879,0,0,1-.353-4.239c.554-1.409,1.171-2.791,1.72-4.2A3.865,3.865,0,0,0,7.322,1.409,3.881,3.881,0,0,0,3.817,6.834c.651,1.484,1.262,2.993,1.8,4.525a4.6,4.6,0,0,1-.534,3.9,8.19,8.19,0,0,1-.705-2.432,8.087,8.087,0,0,0-.56-2.512c-.372-1.06-.9-2.064-1.3-3.114A5.137,5.137,0,0,1,6.4.1,5.135,5.135,0,0,1,12.28,6.614c-.379,1.194-.933,2.331-1.4,3.495a7.149,7.149,0,0,0-.7,3.209,5.514,5.514,0,0,1-.55,1.824l-.18-.019" transform="translate(2.457 0)" fill="#fff"/>
        <path id="Path_23536" data-name="Path 23536" d="M5.345,15.243c.348.974.943,1.887.634,3.014a.975.975,0,0,0,.119.53c.545,1.372,1.049,2.763,1.662,4.1a5.219,5.219,0,0,1-3.733,7.377,4.878,4.878,0,0,1-3.62-.662A.631.631,0,0,1,.1,28.681a.632.632,0,0,1,.978-.275,3.728,3.728,0,0,0,2.941.368A3.743,3.743,0,0,0,6.6,23.758c-.433-1.194-.974-2.352-1.43-3.54A6.038,6.038,0,0,1,4.692,16.6a14.386,14.386,0,0,1,.467-1.381l.186.028" transform="translate(0.002 17.71)" fill="#fff"/>
        <path id="Path_23537" data-name="Path 23537" d="M20.568,15.171a4.895,4.895,0,0,1,.42,4.362c-.522,1.361-1.108,2.7-1.668,4.04a3.867,3.867,0,0,0,.861,4.382,3.81,3.81,0,0,0,4.466.565c.552-.283.846-.234,1.084.188s.126.708-.413,1.019a5.039,5.039,0,0,1-5.884-.584,4.946,4.946,0,0,1-1.545-5.65c.506-1.346,1.1-2.659,1.616-4a3.6,3.6,0,0,0,.27-1.389,6.353,6.353,0,0,1,.792-2.93" transform="translate(20.434 17.658)" fill="#fff"/>
        <path id="Path_23538" data-name="Path 23538" d="M10.206,16.81a3.768,3.768,0,0,0-.128-.682c-.539-1.448-1.149-2.872-1.627-4.341a4.421,4.421,0,0,1,.58-3.6,5.751,5.751,0,0,1,.76,2.932,2.7,2.7,0,0,0,.242,1.218c.472,1.22.982,2.426,1.487,3.631a5.211,5.211,0,0,1-.249,4.882,7.06,7.06,0,0,1-.679-2.183,9.052,9.052,0,0,0-.11-1.428c-.019-.147-.171-.275-.275-.431" transform="translate(9.633 9.532)" fill="#fff"/>
        <path id="Path_23539" data-name="Path 23539" d="M12.086,24.178a5.142,5.142,0,0,1-.19-4.8c.593-1.411,1.153-2.835,1.716-4.259a.9.9,0,0,0,.013-.485c-.227-1.082.316-1.954.736-2.956a5.2,5.2,0,0,1,.18,4.968C14,17.905,13.466,19.165,13,20.444a3.61,3.61,0,0,0-.206,1.515,4.163,4.163,0,0,1-.705,2.22" transform="translate(13.263 13.6)" fill="#fff"/>
        <path id="Path_23540" data-name="Path 23540" d="M18.394,24.207a4.51,4.51,0,0,1-.537-4.2c.48-1.257,1-2.5,1.543-3.728a4.264,4.264,0,0,0,.39-2.041,5.252,5.252,0,0,1,.792-2.54,4.7,4.7,0,0,1,.474,4.027c-.409,1.218-.954,2.391-1.441,3.583a6.721,6.721,0,0,0-.641,3.045,5.5,5.5,0,0,1-.58,1.857" transform="translate(20.436 13.613)" fill="#fff"/>
        <path id="Path_23541" data-name="Path 23541" d="M11.263,17.352c-.318-.747-.9-1.439-.8-2,.407-2.194-1.011-3.783-1.649-5.613a5.856,5.856,0,0,1-.219-4.2c.1-.251.232-.489.418-.87.361,1.078.956,1.932.734,3.025a1.625,1.625,0,0,0,.13.857c.511,1.3,1.062,2.588,1.575,3.889a5.2,5.2,0,0,1-.193,4.914" transform="translate(9.656 5.433)" fill="#fff"/>
        <path id="Path_23542" data-name="Path 23542" d="M14.362,4.693a4.746,4.746,0,0,1,.485,4.12c-.457,1.3-1.037,2.562-1.565,3.841a4.532,4.532,0,0,0-.491,2.352,2.213,2.213,0,0,0,.156.467c-.281.6-.547,1.151-.842,1.77a3.575,3.575,0,0,1-.692-1.906,8.539,8.539,0,0,1,.989-4.153c.327-.781.7-1.547.967-2.348a4.059,4.059,0,0,0,.245-1.549,5.791,5.791,0,0,1,.749-2.595" transform="translate(13.256 5.463)" fill="#fff"/>
        <path id="Path_23543" data-name="Path 23543" d="M9.026,11.668c.387,1.041.952,1.9.738,2.991a1.543,1.543,0,0,0,.113.8c.606,1.545,1.275,3.066,1.844,4.624a4.824,4.824,0,0,1-.348,4.1l-.18.05a5.72,5.72,0,0,1-.571-1.824,7.266,7.266,0,0,0-.734-3.248c-.47-1.082-.924-2.175-1.32-3.285a4.9,4.9,0,0,1,.459-4.207" transform="translate(9.642 13.581)" fill="#fff"/>
        <path id="Path_23544" data-name="Path 23544" d="M2.909,4.754c.342.976.9,1.9.617,3.019a.863.863,0,0,0,.108.474c.6,1.526,1.24,3.04,1.818,4.577a4.8,4.8,0,0,1-.377,4.436,4.886,4.886,0,0,1-.669-2.4,3.476,3.476,0,0,0-.26-1.562c-.461-1.242-.978-2.465-1.506-3.681A5.42,5.42,0,0,1,2.459,5.36c.082-.214.2-.42.294-.63l.156.024" transform="translate(2.453 5.506)" fill="#fff"/>
        <path id="Path_23545" data-name="Path 23545" d="M12.035,20.657a5,5,0,0,1-.234-4.488c.584-1.493,1.205-2.971,1.8-4.458a.724.724,0,0,0,.087-.409c-.344-1.13.275-2.03.662-3.1a4.307,4.307,0,0,1,.582,3.718c-.48,1.43-1.062,2.828-1.64,4.222a7.464,7.464,0,0,0-.524,2.469,10.218,10.218,0,0,1-.563,2.086l-.175-.037" transform="translate(13.248 9.544)" fill="#fff"/>
        <path id="Path_23546" data-name="Path 23546" d="M17.458,20.75a6.362,6.362,0,0,1-.692-2.53,7.218,7.218,0,0,0-.589-2.393c-.342-.952-.822-1.852-1.192-2.8a5.119,5.119,0,0,1,.171-4.784,4.112,4.112,0,0,1,.779,2.837.985.985,0,0,0,.037.519c.576,1.458,1.156,2.915,1.753,4.365a5.168,5.168,0,0,1-.266,4.782" transform="translate(16.849 9.599)" fill="#fff"/>
        <path id="Path_23547" data-name="Path 23547" d="M18.266,17.234a4.29,4.29,0,0,1-.491-3.687c.513-1.5,1.16-2.947,1.694-4.436a5.615,5.615,0,0,0,.309-1.658,7.355,7.355,0,0,1,.775-2.776,5.031,5.031,0,0,1,.731,2.276,7.11,7.11,0,0,1-.809,3.406c-.377.917-.814,1.818-1.119,2.761-.216.669-.229,1.4-.379,2.095s-.351,1.365-.53,2.049l-.182-.03" transform="translate(20.432 5.444)" fill="#fff"/>
        <path id="Path_23548" data-name="Path 23548" d="M20.577,8.187a5.1,5.1,0,0,1,.316,4.577c-.5,1.246-1.075,2.469-1.513,3.737a18.384,18.384,0,0,0-.4,2.2,13.7,13.7,0,0,1-.615,2.032,4.13,4.13,0,0,1-.578-3.819c.522-1.534,1.192-3.014,1.751-4.538a3.824,3.824,0,0,0,.232-1.445,6.552,6.552,0,0,1,.8-2.746" transform="translate(20.434 9.53)" fill="#fff"/>
        <path id="Path_23549" data-name="Path 23549" d="M5.093,24.354A5.663,5.663,0,0,1,4.424,21.8a3.831,3.831,0,0,0-.348-1.712c-.506-1.344-1.1-2.657-1.627-3.992a4.974,4.974,0,0,1,.381-4.417,5.419,5.419,0,0,1,.783,2.865,1.921,1.921,0,0,0,.063.848q.769,1.983,1.6,3.943a5.332,5.332,0,0,1,.128,4.4c-.071.167-.162.325-.314.623" transform="translate(2.44 13.593)" fill="#fff"/>
        <path id="Path_23550" data-name="Path 23550" d="M15.243,11.664c.428,1.108.961,2.058.647,3.192a.765.765,0,0,0,.1.418c.55,1.37,1.086,2.744,1.668,4.1a5.289,5.289,0,0,1,.2,4.194c-.093.234-.225.452-.4.794a5.17,5.17,0,0,1-.656-2.473,2.506,2.506,0,0,0-.158-1.179c-.606-1.606-1.3-3.179-1.874-4.791a4.745,4.745,0,0,1,.474-4.252" transform="translate(16.84 13.577)" fill="#fff"/>
        <path id="Path_23551" data-name="Path 23551" d="M8.186,4.7a4.633,4.633,0,0,1,.731,2.192,7.78,7.78,0,0,1-.937,3.713c-.426,1.041-.855,2.082-1.242,3.136a2.067,2.067,0,0,0-.134,1.03,4.128,4.128,0,0,1-.671,2.491,4.361,4.361,0,0,1-.547-3.707c.439-1.346,1.011-2.651,1.526-3.973A9.179,9.179,0,0,0,7.3,8.552a3.535,3.535,0,0,0,.113-1.062A6.21,6.21,0,0,1,8.186,4.7" transform="translate(6.033 5.473)" fill="#fff"/>
        <path id="Path_23552" data-name="Path 23552" d="M5.079,20.823a5.64,5.64,0,0,1-.677-2.53,4.632,4.632,0,0,0-.411-1.924C3.569,15.231,3.043,14.132,2.6,13a5.175,5.175,0,0,1,.21-4.8,5.052,5.052,0,0,1,.8,2.8,2.1,2.1,0,0,0,.074.9c.5,1.309,1.026,2.61,1.582,3.9a5.33,5.33,0,0,1-.18,5.018" transform="translate(2.453 9.553)" fill="#fff"/>
        <path id="Path_23553" data-name="Path 23553" d="M8.23,8.27a5.079,5.079,0,0,1,.138,4.854C7.93,14.177,7.4,15.2,7.04,16.281A24.019,24.019,0,0,0,6.612,18.7c-.145.671-.379,1.32-.615,2.123a4.649,4.649,0,0,1-.487-4.3c.5-1.368,1.071-2.709,1.616-4.06a4.564,4.564,0,0,0,.327-1.684,12.944,12.944,0,0,1,.541-2.556l.236.039" transform="translate(6.045 9.581)" fill="#fff"/>
        <path id="Path_23554" data-name="Path 23554" d="M17.458,17.268a5.866,5.866,0,0,1-.669-2.5,6.288,6.288,0,0,0-.48-2.025c-.5-1.368-1.117-2.694-1.606-4.066a4.629,4.629,0,0,1,.206-3.408c.067-.16.164-.309.314-.582.409,1.073,1.008,1.952.682,3.06a.909.909,0,0,0,.089.528c.541,1.355,1.084,2.707,1.645,4.053a5.174,5.174,0,0,1,0,4.7,2.9,2.9,0,0,1-.175.24" transform="translate(16.838 5.458)" fill="#fff"/>
        <path id="Path_23555" data-name="Path 23555" d="M5.946,24.315a4.933,4.933,0,0,1-.463-4.274c.444-1.251.991-2.463,1.491-3.692a5.391,5.391,0,0,0,.491-2.212,7.211,7.211,0,0,1,.641-2.43A3.719,3.719,0,0,1,8.826,14.9c-.359,1.346-.911,2.64-1.394,3.951-.346.946-.972,1.831-.837,2.882a5.378,5.378,0,0,1-.649,2.579" transform="translate(6.042 13.628)" fill="#fff"/>
        <path id="Path_23556" data-name="Path 23556" d="M19.023,19.3c.151-.374.309-.757.411-1.008.952,0,1.8.048,2.649-.022a4.415,4.415,0,0,0,1.119-.448.547.547,0,0,1,.785.283c.078.249.069.692-.087.82a4.628,4.628,0,0,1-4.877.374" transform="translate(22.141 20.674)" fill="#fff"/>
        <path id="Path_23557" data-name="Path 23557" d="M4.553,18.151c.2.435.368.8.558,1.214a4.585,4.585,0,0,1-3.265.312A8.266,8.266,0,0,1,.37,19.058.594.594,0,0,1,.1,18.168a.594.594,0,0,1,.876-.318,4.233,4.233,0,0,0,3.575.3" transform="translate(0.004 20.67)" fill="#fff"/>
        <path id="Path_23558" data-name="Path 23558" d="M4.563,11.17a1,1,0,0,1-.573,1.575,5.012,5.012,0,0,1-3.514-.6c-.385-.21-.606-.489-.383-.943.21-.426.541-.537,1.015-.277a4.226,4.226,0,0,0,3.456.249" transform="translate(0.003 12.55)" fill="#fff"/>
        <path id="Path_23559" data-name="Path 23559" d="M19.381,11.176a4.267,4.267,0,0,0,3.6-.316.591.591,0,0,1,.866.338.6.6,0,0,1-.238.859,4.919,4.919,0,0,1-3.813.666,1.018,1.018,0,0,1-.415-1.547" transform="translate(22.34 12.539)" fill="#fff"/>
        <path id="Path_23560" data-name="Path 23560" d="M4.616,7.68a1.038,1.038,0,0,1-.773,1.59,4.882,4.882,0,0,1-3.35-.617C0,8.386-.115,8.059.108,7.667c.258-.454.612-.454,1.032-.227a4.006,4.006,0,0,0,3.209.29,2.163,2.163,0,0,1,.266-.05" transform="translate(0 8.487)" fill="#fff"/>
        <path id="Path_23561" data-name="Path 23561" d="M4.581,14.633a1.051,1.051,0,0,1-.632,1.606A4.821,4.821,0,0,1,.4,15.583a.621.621,0,0,1-.286-.928.619.619,0,0,1,.933-.275,4.042,4.042,0,0,0,3.538.253" transform="translate(0.003 16.608)" fill="#fff"/>
        <path id="Path_23562" data-name="Path 23562" d="M19.375,7.66a4.175,4.175,0,0,0,3.54-.264.618.618,0,0,1,.93.288.625.625,0,0,1-.3.924,4.968,4.968,0,0,1-3.5.66,1.014,1.014,0,0,1-.669-1.608" transform="translate(22.334 8.484)" fill="#fff"/>
        <path id="Path_23563" data-name="Path 23563" d="M19.358,14.643a4.123,4.123,0,0,0,3.577-.279.609.609,0,0,1,.889.286.6.6,0,0,1-.221.9,4.892,4.892,0,0,1-3.761.664,1.054,1.054,0,0,1-.485-1.573" transform="translate(22.343 16.607)" fill="#fff"/>
        <path id="Path_23564" data-name="Path 23564" d="M10.81,19.174a4.938,4.938,0,0,1-4.17,0c.169-.418.322-.8.5-1.238a4.387,4.387,0,0,0,3.127-.011c.177.411.344.792.543,1.249" transform="translate(7.728 20.864)" fill="#fff"/>
        <path id="Path_23565" data-name="Path 23565" d="M3.539,3.941a5.153,5.153,0,0,1,4.17,0c-.169.422-.327.818-.506,1.264A4.216,4.216,0,0,0,4.073,5.2L3.539,3.941" transform="translate(4.119 4.077)" fill="#fff"/>
        <path id="Path_23566" data-name="Path 23566" d="M16.454,5.211c-.19-.446-.355-.827-.539-1.259a5.1,5.1,0,0,1,4.17-.011c-.173.426-.333.822-.513,1.266a4.136,4.136,0,0,0-3.118,0" transform="translate(18.524 4.075)" fill="#fff"/>
        <path id="Path_23567" data-name="Path 23567" d="M17,19.188a4.991,4.991,0,0,1-4.172-.009c.175-.424.34-.818.524-1.259a4.207,4.207,0,0,0,3.105.019c.18.415.346.8.543,1.249" transform="translate(14.926 20.858)" fill="#fff"/>
        <path id="Path_23568" data-name="Path 23568" d="M13.317,5.217a4.118,4.118,0,0,0-3.1-.011,10.65,10.65,0,0,1-.428-1.013.41.41,0,0,1,.188-.355,4.771,4.771,0,0,1,3.562,0,.446.446,0,0,1,.177.4,8.657,8.657,0,0,1-.4.976" transform="translate(11.384 4.069)" fill="#fff"/>
        <path id="Path_23569" data-name="Path 23569" d="M10.045,7.455a1,1,0,0,1-.712,1.608,7.538,7.538,0,0,1-1.7-.006.975.975,0,0,1-.619-1.588,4.3,4.3,0,0,0,3.027-.013" transform="translate(7.926 8.678)" fill="#fff"/>
        <path id="Path_23570" data-name="Path 23570" d="M16.236,7.457a.984.984,0,0,1-.7,1.608c-.524.058-1.058.013-1.588.019-.383,0-.563-.227-.77-.517a.791.791,0,0,1,.052-1.093,4.3,4.3,0,0,0,3.008-.017" transform="translate(15.109 8.68)" fill="#fff"/>
        <path id="Path_23571" data-name="Path 23571" d="M13.07,11.023h3.218a.919.919,0,0,1-.677,1.437c-.487.069-.987.035-1.48.065a1.09,1.09,0,0,1-1.121-.872,1.362,1.362,0,0,1,.061-.63" transform="translate(15.113 12.83)" fill="#fff"/>
        <path id="Path_23572" data-name="Path 23572" d="M13.117,14.422a4.2,4.2,0,0,0,3.129.032,1.009,1.009,0,0,1-.658,1.6,12.037,12.037,0,0,1-1.426.076,1.17,1.17,0,0,1-1.164-.9c-.074-.21.065-.5.119-.807" transform="translate(15.104 16.787)" fill="#fff"/>
        <path id="Path_23573" data-name="Path 23573" d="M10,14.44a.973.973,0,0,1-.619,1.59,6.68,6.68,0,0,1-1.7.011c-.814-.108-1.106-.822-.666-1.582A4.2,4.2,0,0,0,10,14.44" transform="translate(7.932 16.808)" fill="#fff"/>
        <path id="Path_23574" data-name="Path 23574" d="M10.093,15.646a.99.99,0,0,1,.628-1.59,6.919,6.919,0,0,1,1.807,0,.962.962,0,0,1,.586,1.575,4.115,4.115,0,0,0-3.021.013" transform="translate(11.531 16.292)" fill="#fff"/>
        <path id="Path_23575" data-name="Path 23575" d="M13.126,12.154a4.109,4.109,0,0,0-3.01-.017.966.966,0,0,1,.56-1.569,7.094,7.094,0,0,1,1.854,0,1,1,0,0,1,.6,1.59" transform="translate(11.529 12.227)" fill="#fff"/>
        <path id="Path_23576" data-name="Path 23576" d="M10.14,11.023a.968.968,0,0,1-.762,1.437,7.519,7.519,0,0,1-1.694,0,.941.941,0,0,1-.734-1.439Z" transform="translate(7.922 12.83)" fill="#fff"/>
        <path id="Path_23577" data-name="Path 23577" d="M16.286,15.66a1,1,0,0,1,.649-1.6,11.548,11.548,0,0,1,1.426-.078,1.165,1.165,0,0,1,1.169.9c.076.21-.061.5-.11.811a4.2,4.2,0,0,0-3.133-.032" transform="translate(18.731 16.274)" fill="#fff"/>
        <path id="Path_23578" data-name="Path 23578" d="M16.294,12.156a.981.981,0,0,1,.636-1.6,6.678,6.678,0,0,1,1.751,0,.987.987,0,0,1,.63,1.593,4.082,4.082,0,0,0-3.016,0" transform="translate(18.727 12.221)" fill="#fff"/>
        <path id="Path_23579" data-name="Path 23579" d="M6.934,15.634a4.139,4.139,0,0,0-3,0,.964.964,0,0,1,.6-1.58A6.619,6.619,0,0,1,6.3,14.048a.977.977,0,0,1,.638,1.586" transform="translate(4.332 16.288)" fill="#fff"/>
        <path id="Path_23580" data-name="Path 23580" d="M6.96,8.652a4.181,4.181,0,0,0-3.029.009.971.971,0,0,1,.6-1.59,6.544,6.544,0,0,1,1.757-.006c.74.093,1.058.835.669,1.588" transform="translate(4.323 8.158)" fill="#fff"/>
        <path id="Path_23581" data-name="Path 23581" d="M16.275,8.658a1.007,1.007,0,0,1,.673-1.61,8.455,8.455,0,0,1,1.913.05,1,1,0,0,1,.6,1.262.48.48,0,0,1-.407.2,4.171,4.171,0,0,0-2.774.1" transform="translate(18.733 8.163)" fill="#fff"/>
        <path id="Path_23582" data-name="Path 23582" d="M6.934,12.151a4.185,4.185,0,0,0-3.01,0,.978.978,0,0,1,.63-1.59,6.379,6.379,0,0,1,1.7-.013c.792.1,1.1.824.682,1.6" transform="translate(4.33 12.218)" fill="#fff"/>
        <path id="Path_23583" data-name="Path 23583" d="M13.124,8.639a4.165,4.165,0,0,0-2.973.009.933.933,0,0,1,.515-1.567,6.751,6.751,0,0,1,1.809-.017c.766.1,1.062.814.649,1.575" transform="translate(11.53 8.161)" fill="#fff"/>
      </g>
    </g>
  </g>
</svg>
