<svg xmlns="http://www.w3.org/2000/svg" width="17.829" height="24" viewBox="0 0 17.829 24">
  <g id="document" transform="translate(-11 -2)">
    <path id="Path_23242" data-name="Path 23242" d="M61.343,42.694A.343.343,0,0,1,61,42.351V41.343a.343.343,0,1,1,.686,0v1.008A.343.343,0,0,1,61.343,42.694Z" transform="translate(-32.857 -25.629)" fill="#3f4547"/>
    <path id="Path_23243" data-name="Path 23243" d="M28.486,26H11.343A.343.343,0,0,1,11,25.657V2.343A.343.343,0,0,1,11.343,2H23.686a.343.343,0,0,1,.242.1l4.8,4.8a.343.343,0,0,1,.1.242v6.168a.343.343,0,0,1-.686,0V7.285l-4.6-4.6H11.686V25.314H28.143V22.53a.343.343,0,0,1,.686,0v3.127A.343.343,0,0,1,28.486,26Z" fill="#3f4547"/>
    <path id="Path_23244" data-name="Path 23244" d="M61.343,52.634A.343.343,0,0,1,61,52.291V51.283a.343.343,0,1,1,.686,0v1.008A.343.343,0,0,1,61.343,52.634Z" transform="translate(-32.857 -32.161)" fill="#3f4547"/>
    <path id="Path_23245" data-name="Path 23245" d="M52.143,7.486h-4.8A.343.343,0,0,1,47,7.143v-4.8a.343.343,0,1,1,.686,0V6.8h4.457a.343.343,0,1,1,0,.686Z" transform="translate(-23.657)" fill="#3f4547"/>
    <path id="Path_23246" data-name="Path 23246" d="M30.686,35.686H18.343a.343.343,0,1,1,0-.686H30.686a.343.343,0,0,1,0,.686Z" transform="translate(-4.6 -21.686)" fill="#3f4547"/>
    <path id="Path_23247" data-name="Path 23247" d="M30.686,25.686H18.343a.343.343,0,1,1,0-.686H30.686a.343.343,0,0,1,0,.686Z" transform="translate(-4.6 -15.114)" fill="#3f4547"/>
    <path id="Path_23248" data-name="Path 23248" d="M25.886,15.686H18.343a.343.343,0,0,1,0-.686h7.543a.343.343,0,1,1,0,.686Z" transform="translate(-4.6 -8.543)" fill="#3f4547"/>
    <path id="Path_23249" data-name="Path 23249" d="M32.8,59.653H25.061a.343.343,0,0,1-.343-.343V57.728a.343.343,0,0,1,.686,0v1.239h7.051V57.728a.343.343,0,1,1,.686,0V59.31A.343.343,0,0,1,32.8,59.653Z" transform="translate(-9.015 -36.396)" fill="#e55400"/>
    <path id="Path_23250" data-name="Path 23250" d="M36.343,47.816A.343.343,0,0,1,36,47.473V42.343a.343.343,0,1,1,.686,0v5.131A.343.343,0,0,1,36.343,47.816Z" transform="translate(-16.429 -26.286)" fill="#e55400"/>
    <path id="Path_23251" data-name="Path 23251" d="M33.273,54.58a.343.343,0,0,1-.242-.1l-1.6-1.6a.343.343,0,1,1,.485-.485l1.359,1.359,1.359-1.359a.343.343,0,0,1,.485.485l-1.6,1.6A.343.343,0,0,1,33.273,54.58Z" transform="translate(-13.359 -33.049)" fill="#e55400"/>
  </g>
</svg>
