<svg xmlns="http://www.w3.org/2000/svg" width="110.971" height="85.038" viewBox="0 0 110.971 85.038">
  <g id="Group_8825" data-name="Group 8825" transform="translate(413.434 -21.71)">
    <path id="Path_1" data-name="Path 1" d="M0,.143.264,22.495l33.368-.31v63H61.715V21.556H95.721V.143Z" transform="translate(-413.434 21.567)" fill="#e55400"/>
    <path id="Path_2" data-name="Path 2" d="M67.363,45.461c-3.733,4.344-10.469,10.1-16.527,10.1-4.468,0-6.549-3.987-6.669-8.026-.248-8.013,8.626-16.217,16.584-16.155,1.959,0,4.406.489,4.406,2.938,0,2.995-3,7.525-14.749,11.381l-.124,1.345c-.185,2.328,1.835,3.125,3.8,3.125,4.344,0,9.484-4.469,12.728-7.042Zm-7.592-9.854c0-.428-.306-.8-.736-.674A13.451,13.451,0,0,0,50.776,42.7c5.384-1.837,9.059-6.06,8.995-7.1" transform="translate(-393.266 35.834)" fill="#3f4547"/>
    <path id="Path_3" data-name="Path 3" d="M83.895,31.495c-2.875,5.811-3.365,8.074-10.1,7.649-2.079,2.7-5.57,7.715-5.57,11.385,0,1.35.431,2.143,1.838,2.143,1.959,0,4.163-1.837,10.526-6.367L80.9,49c-3.61,3.308-10.22,9.856-15.422,9.856-2.389,0-3.854-1.655-3.854-4.1a16.2,16.2,0,0,1,1.589-6.121l-.124-.118L59.963,51.02l-.673-2.328a35.255,35.255,0,0,0,9.3-9.8c-3.732,0-2.567-.243-5.811.248l.672-1.1c3.305-5.385,3.795-6.367,10.341-6.61,1.835-2.511,3.184-5.385,6.734-5.385.8,0,1.956.184,1.956,1.162,0,1.1-1.774,3.123-2.385,3.975Z" transform="translate(-386.357 33.397)" fill="#3f4547"/>
    <path id="Path_4" data-name="Path 4" d="M34.211,30.666q-.424,1.324-.846,2.639a35.714,35.714,0,0,1-1.177,3.452,29.162,29.162,0,0,1-2.6,4.335c-1.416,2.052-3.1,3.885-4.093,6.425a25.383,25.383,0,0,0-1.263,5.5,5.2,5.2,0,0,0,.074,2.7c.334.562,1.321-.135,1.631-.367a16.987,16.987,0,0,0,3.1-3.968q2.395-4.02,4.8-8.035a20.913,20.913,0,0,1,1.532-1.827L35.888,41a8.041,8.041,0,0,1,1.122-1.072c.205-.194.409-.383.618-.575.542-.425,1.052-.9,1.611-1.315a16.713,16.713,0,0,1,3.307-2.178,2.737,2.737,0,0,1,1.591-.412c1.005.191,1.3.84.87,2.1a17.016,17.016,0,0,1-1.452,3c-1.276,2.2-2.635,4.315-4.02,6.411-.454.7-.875,1.441-1.339,2.16a6.993,6.993,0,0,0-.7,1.264,6.428,6.428,0,0,0,.417,4.648c.736,1.516,3.971.989,5.444.366a19.071,19.071,0,0,0,7.575-6.348,14.222,14.222,0,0,0,1.388-2.243,3.77,3.77,0,0,0,.385-.891c-.7.484-1.407.96-2.1,1.439-.737.485-1.47.976-2.2,1.463a27.834,27.834,0,0,1-2.565,1.607c-.784.4-2.446.964-2.9-.039a1.418,1.418,0,0,1,.248-1.32c.564-.88,1.126-1.765,1.7-2.654,1.244-1.841,2.4-3.736,3.621-5.613.355-.588.708-1.184,1.059-1.77.485-.756,1.518-2.4,1.457-3.659-.141-2.771-2.6-4.261-5.815-3.422a19.963,19.963,0,0,0-5.722,2.6c-.5.328-.982.663-1.48.989-.227.168-.457.332-.685.5a3.08,3.08,0,0,0,.2-1.17c-.138-1.129-1.435-2.4-2.135-3.059-.293-.293-.586-.583-.874-.874-.095-.084-.163-.224-.294-.265" transform="translate(-402.431 35.506)" fill="#3f4547"/>
  </g>
</svg>
