<svg xmlns="http://www.w3.org/2000/svg" xmlns:xlink="http://www.w3.org/1999/xlink" width="50" height="50" viewBox="0 0 50 50">
  <defs>
    <clipPath id="clip-path">
      <rect id="Rectangle_9128" data-name="Rectangle 9128" width="50" height="50" transform="translate(346 332)" fill="#fff" stroke="#707070" stroke-width="1"/>
    </clipPath>
    <clipPath id="clip-path-2">
      <rect id="Rectangle_9127" data-name="Rectangle 9127" width="40" height="36" transform="translate(0.1 0.09)" fill="#fff"/>
    </clipPath>
  </defs>
  <g id="Mask_Group_1128" data-name="Mask Group 1128" transform="translate(-346 -332)" clip-path="url(#clip-path)">
    <g id="Group_9094" data-name="Group 9094" transform="translate(351.266 338.679)">
      <g id="Group_9093" data-name="Group 9093" transform="translate(-0.367 0.231)" clip-path="url(#clip-path-2)">
        <path id="Path_23591" data-name="Path 23591" d="M24.228,27.456a4.228,4.228,0,1,1,4.228-4.228,4.232,4.232,0,0,1-4.228,4.228m0-7.047a2.819,2.819,0,1,0,2.819,2.819,2.822,2.822,0,0,0-2.819-2.819" transform="translate(-5.537 -5.843)" fill="#fff"/>
        <path id="Path_23592" data-name="Path 23592" d="M49.524,27.047a3.524,3.524,0,1,1,3.524-3.524,3.528,3.528,0,0,1-3.524,3.524m0-5.638a2.114,2.114,0,1,0,2.114,2.114,2.117,2.117,0,0,0-2.114-2.114" transform="translate(-13.215 -6.138)" fill="#fff"/>
        <path id="Path_23593" data-name="Path 23593" d="M8.228,48.456a4.228,4.228,0,1,1,4.228-4.228,4.233,4.233,0,0,1-4.228,4.228m0-7.047a2.819,2.819,0,1,0,2.819,2.819,2.822,2.822,0,0,0-2.819-2.819" transform="translate(-0.813 -12.044)" fill="#fff"/>
        <path id="Path_23594" data-name="Path 23594" d="M40.819,24.7a.7.7,0,1,1,.7.7.707.707,0,0,1-.7-.7M38,24.7a.7.7,0,1,1,.7.7.707.707,0,0,1-.7-.7" transform="translate(-10.853 -7.319)" fill="#fff"/>
        <path id="Path_23595" data-name="Path 23595" d="M14.982,37.84a.717.717,0,0,1-.281-.571.678.678,0,0,1,.148-.416.7.7,0,0,1,.985-.134.688.688,0,0,1,.276.564.731.731,0,0,1-.142.423.708.708,0,0,1-.563.275.682.682,0,0,1-.424-.141M16.688,35.6a.7.7,0,0,1,.852-1.12.712.712,0,0,1,.282.564.707.707,0,0,1-.71.7.681.681,0,0,1-.424-.141" transform="translate(-3.973 -10.37)" fill="#fff"/>
        <path id="Path_23596" data-name="Path 23596" d="M31.255,10.571a3.524,3.524,0,1,0-3.524-3.524,3.49,3.49,0,0,0,.716,2.106L25.5,12.485a7,7,0,0,0-8.04-1.125L13.994,6.03A3.586,3.586,0,1,0,12.81,6.8l3.466,5.333a7.041,7.041,0,0,0,8.292,11.364l2.693,3.729a3.526,3.526,0,1,0,1.139-.829L25.662,22.6a7.021,7.021,0,0,0,.771-9.046L29.5,10.086a3.483,3.483,0,0,0,1.75.484M12.675,5.292h0a2.111,2.111,0,1,1,.965-1.77,2.1,2.1,0,0,1-.965,1.77m15.933,22.6,0,0,.006-.006a2.092,2.092,0,0,1,1.227-.4,2.131,2.131,0,1,1-1.238.409m-7.923-4.637a5.638,5.638,0,1,1,5.638-5.638,5.644,5.644,0,0,1-5.638,5.638M31.255,4.933a2.114,2.114,0,0,1,0,4.228,2.1,2.1,0,0,1-1.389-.533l-.006-.006s-.007,0-.01-.006a2.106,2.106,0,0,1,1.4-3.683" transform="translate(-1.994 -0.232)" fill="#fff"/>
        <path id="Path_23597" data-name="Path 23597" d="M7.77,28.3a.7.7,0,0,1-.5-.206,7.761,7.761,0,0,1,0-10.963.7.7,0,1,1,1,1,6.351,6.351,0,0,0,0,8.97.7.7,0,0,1-.5,1.2" transform="translate(-1.109 -5.231)" fill="#fff"/>
        <path id="Path_23598" data-name="Path 23598" d="M11.407,26.568a.7.7,0,0,1-.536-.247,3.854,3.854,0,0,1,0-4.9.7.7,0,1,1,1.073.915,2.48,2.48,0,0,0,0,3.072.7.7,0,0,1-.536,1.162" transform="translate(-2.582 -6.484)" fill="#fff"/>
        <path id="Path_23599" data-name="Path 23599" d="M4.008,30.042a.7.7,0,0,1-.5-.206,11.981,11.981,0,0,1,0-16.942.7.7,0,0,1,1,1,10.571,10.571,0,0,0,0,14.949.7.7,0,0,1-.5,1.2" transform="translate(0.368 -3.978)" fill="#fff"/>
      </g>
    </g>
  </g>
</svg>
