<svg xmlns="http://www.w3.org/2000/svg" xmlns:xlink="http://www.w3.org/1999/xlink" width="50" height="50" viewBox="0 0 50 50">
  <defs>
    <clipPath id="clip-path">
      <rect id="Rectangle_9126" data-name="Rectangle 9126" width="50" height="50" transform="translate(346 332)" fill="#fff" stroke="#707070" stroke-width="1"/>
    </clipPath>
  </defs>
  <g id="Mask_Group_1127" data-name="Mask Group 1127" transform="translate(-346 -332)" clip-path="url(#clip-path)">
    <g id="Group_9092" data-name="Group 9092" transform="translate(349.848 332)">
      <path id="Path_23584" data-name="Path 23584" d="M29.291,37.813c-.546.3-1.062.6-1.587.873a.321.321,0,0,0-.2.389c.064.41.1.827.144,1.239.066.581-.136.842-.731.93-.187.027-.377.039-.591.062-.286-.517-.583-1.029-.856-1.554a.368.368,0,0,0-.441-.237c-.482.072-.97.1-1.451.171a.379.379,0,0,1-.475-.233c-.208-.428-.471-.827-.677-1.254a.422.422,0,0,0-.529-.263c-.564.082-1.132.128-1.7.189-.3-.531-.593-1.046-.865-1.573a.345.345,0,0,0-.418-.21c-.517.068-1.039.128-1.56.163a.417.417,0,0,1-.321-.165c-.278-.459-.515-.937-.793-1.394a.457.457,0,0,0-.35-.181c-.519.033-1.04.1-1.558.165a.325.325,0,0,1-.391-.2c-.228-.443-.488-.869-.714-1.315a.388.388,0,0,0-.469-.251c-.576.086-1.155.134-1.75.2-.284-.511-.58-1.013-.84-1.531a.41.41,0,0,0-.5-.251c-.564.08-1.132.13-1.721.194-.276-.5-.564-.992-.821-1.5A.422.422,0,0,0,6.6,30c-.48.08-.968.1-1.451.171a.346.346,0,0,1-.412-.222c-.276-.525-.57-1.04-.86-1.567-.69.076-1.363.15-2.126.231q-.213-.665-.436-1.35c.591-.327,1.1-.622,1.632-.895a.37.37,0,0,0,.226-.445c-.078-.578-.13-1.157-.2-1.768.5-.278,1.005-.57,1.521-.834a.407.407,0,0,0,.264-.492c-.084-.574-.132-1.155-.2-1.737.535-.3,1.048-.591,1.575-.865a.348.348,0,0,0,.212-.418c-.078-.587-.134-1.177-.2-1.778.541-.3,1.074-.585,1.593-.9a.464.464,0,0,0,.183-.348c-.035-.521-.1-1.042-.165-1.56a.313.313,0,0,1,.2-.391c.247-.113.48-.257.743-.4.261.471.525.92.76,1.385a.368.368,0,0,0,.447.228c.471-.068.947-.091,1.416-.169a.43.43,0,0,1,.525.282c.2.414.453.809.661,1.223a.385.385,0,0,0,.471.251c.492-.076.992-.107,1.486-.173a.334.334,0,0,1,.4.2c.241.465.49.926.762,1.371a.464.464,0,0,0,.354.181c.51-.033,1.017-.089,1.523-.163a.37.37,0,0,1,.445.235c.228.445.486.871.72,1.313a.328.328,0,0,0,.385.22,9.274,9.274,0,0,0,1.3-.161c.436-.128.825-.408,1.249-.581a.614.614,0,0,0,.424-.817c-.088-.4-.086-.828-.152-1.237a.337.337,0,0,1,.222-.412c.441-.229.869-.49,1.315-.716a.367.367,0,0,0,.224-.449c-.07-.482-.093-.97-.171-1.451a.381.381,0,0,1,.253-.467c.434-.22.852-.475,1.285-.7a.352.352,0,0,0,.222-.42c-.072-.506-.107-1.015-.177-1.521a.322.322,0,0,1,.2-.393c.455-.231.893-.5,1.346-.731a.345.345,0,0,0,.222-.416c-.072-.515-.119-1.035-.181-1.587.348-.041.661-.089.978-.1.072,0,.173.1.218.177.268.463.511.939.792,1.4a.456.456,0,0,0,.348.181c.6-.043,1.206-.119,1.82-.185.284.513.576,1.017.844,1.532a.384.384,0,0,0,.467.253c.469-.074.947-.089,1.414-.171a.417.417,0,0,1,.517.28c.21.428.467.83.679,1.254a.367.367,0,0,0,.449.224c.492-.072.992-.105,1.486-.175a.345.345,0,0,1,.412.222c.274.525.568,1.04.858,1.566l2.126-.233c.142.445.288.9.434,1.352-.591.325-1.1.622-1.632.895a.368.368,0,0,0-.224.447c.07.506.107,1.015.175,1.521a.3.3,0,0,1-.187.364c-.441.228-.869.49-1.315.714a.41.41,0,0,0-.264.494c.084.576.134,1.155.2,1.737-.525.29-1.027.583-1.546.846a.384.384,0,0,0-.237.475c.072.492.105.992.175,1.486a.323.323,0,0,1-.2.387c-.465.241-.914.51-1.377.751a.3.3,0,0,0-.187.364c.07.517.109,1.039.179,1.558a.324.324,0,0,1-.2.391c-.445.226-.871.486-1.317.712a.387.387,0,0,0-.251.469c.086.574.134,1.155.2,1.752-.523.288-1.037.585-1.562.858a.364.364,0,0,0-.226.445c.08.576.132,1.157.2,1.76-.517.286-1.031.581-1.558.852a.372.372,0,0,0-.228.447c.08.578.134,1.157.2,1.76" transform="translate(1.241 8.181)" fill="#3f4547"/>
      <path id="Path_23585" data-name="Path 23585" d="M26.337,42.056l-.395-.708c-.206-.368-.412-.735-.609-1.11-.243.035-.473.058-.7.082s-.471.051-.7.084a.865.865,0,0,1-.986-.506c-.1-.194-.2-.387-.313-.578-.126-.224-.253-.445-.364-.675-.414.064-.809.105-1.206.144l-.856.091-.42-.755c-.2-.354-.4-.7-.581-1.06-.531.07-1.035.126-1.54.159a.812.812,0,0,1-.77-.4c-.138-.228-.264-.457-.393-.688s-.259-.473-.4-.7c-.412.082-.922.146-1.427.212a.8.8,0,0,1-.889-.459c-.109-.214-.228-.424-.344-.636s-.253-.451-.37-.681c-.368.07-.774.111-1.186.154l-.869.093-.41-.739c-.2-.364-.408-.723-.593-1.095-.406.072-.813.113-1.227.156l-.83.089-.391-.7c-.2-.366-.408-.725-.6-1.095-.278.019-.554.049-.828.078-.214.019-.426.041-.638.072a.818.818,0,0,1-.914-.478c-.2-.373-.4-.741-.609-1.112l-.088-.161-2.2.239-.679-2.108.827-.459c.391-.218.757-.424,1.128-.615-.054-.422-.1-.809-.136-1.208l-.091-.862.692-.387c.373-.208.745-.416,1.126-.613-.056-.408-.1-.828-.142-1.252l-.088-.813.755-.418c.354-.2.706-.395,1.062-.58-.054-.422-.1-.813-.136-1.21l-.091-.852.69-.383c.4-.218.788-.432,1.171-.661-.086-.412-.146-.922-.214-1.429a.794.794,0,0,1,.475-.9c.163-.072.315-.159.478-.251l.657-.36.449.8c.185.327.366.65.535.976.231-.031.436-.051.64-.07.245-.025.49-.051.733-.089a.913.913,0,0,1,1.037.545c.1.206.214.4.325.6s.231.41.336.62a7.155,7.155,0,0,1,.832-.117c.208-.021.418-.043.626-.072a.834.834,0,0,1,.893.465c.235.451.478.9.745,1.336.4-.08.9-.134,1.392-.206a.839.839,0,0,1,.947.494c.123.237.253.469.383.7.1.187.208.371.309.56.146-.018.288-.027.432-.037a3.439,3.439,0,0,0,.716-.1,3.493,3.493,0,0,0,.64-.294c.187-.1.371-.194.564-.272a.4.4,0,0,0,.146-.084.393.393,0,0,0-.014-.179,6.274,6.274,0,0,1-.1-.764c-.016-.167-.029-.335-.056-.5a.811.811,0,0,1,.48-.924c.2-.105.4-.218.607-.333.22-.123.441-.247.667-.364-.031-.239-.053-.447-.074-.655-.025-.253-.053-.5-.091-.753a.857.857,0,0,1,.515-.98c.216-.111.43-.228.644-.348.2-.107.391-.218.591-.321-.033-.257-.058-.494-.084-.731s-.053-.492-.086-.737a.79.79,0,0,1,.461-.891c.226-.115.447-.241.669-.364s.416-.231.628-.342c-.049-.362-.086-.708-.123-1.066l-.105-.963.78-.088c.247-.029.48-.058.714-.068a.767.767,0,0,1,.659.418c.111.191.218.385.323.578.152.272.3.545.463.811a10.47,10.47,0,0,1,1.219-.183l.8-.089.408.733c.2.366.406.727.6,1.095a6.434,6.434,0,0,1,.659-.086c.237-.023.475-.047.708-.086a.888.888,0,0,1,1.037.546c.1.21.22.418.338.624s.214.381.313.576c.272-.035.51-.06.749-.086s.473-.049.708-.082a.808.808,0,0,1,.91.478c.2.381.41.758.622,1.138l.074.134,2.2-.241.675,2.108-.817.455c-.393.22-.762.428-1.136.62.037.28.062.529.088.778s.051.476.082.716a.781.781,0,0,1-.443.858c-.2.105-.4.218-.6.329-.239.132-.476.266-.722.389.058.4.1.823.146,1.243l.088.823-.71.393c-.381.214-.755.426-1.138.616a4.786,4.786,0,0,1,.117.743c.025.239.051.478.086.716a.8.8,0,0,1-.465.887c-.224.119-.447.241-.669.368-.206.115-.412.229-.622.34.029.243.054.471.078.7.027.257.054.513.088.768a.8.8,0,0,1-.455.889c-.22.111-.434.231-.646.348s-.447.249-.675.366c.072.381.117.805.161,1.233l.088.819-.69.387c-.375.208-.749.42-1.13.616.056.426.1.821.14,1.225l.091.84-.737.406c-.37.206-.743.414-1.12.607A9.055,9.055,0,0,1,30,37.483l.089.832-.657.366c-.391.222-.772.434-1.157.638.039.268.066.529.091.79l.043.385a1.188,1.188,0,0,1-1.145,1.464c-.146.023-.3.037-.455.051Zm-.933-2.8a.841.841,0,0,1,.78.508c.194.373.4.741.607,1.109l.086.156c.086-.008.167-.017.249-.029.352-.053.358-.082.323-.393L27.4,40.21c-.029-.274-.056-.552-.1-.823a.8.8,0,0,1,.455-.895c.4-.212.8-.432,1.2-.659l.1-.053-.021-.194c-.045-.416-.088-.827-.142-1.231a.849.849,0,0,1,.482-.945c.37-.191.733-.391,1.093-.593l.173-.1-.021-.2c-.043-.414-.086-.821-.142-1.223a.844.844,0,0,1,.484-.947c.383-.2.76-.408,1.138-.622l.13-.072-.019-.185c-.043-.414-.084-.821-.144-1.225a.861.861,0,0,1,.511-.972c.216-.111.428-.231.642-.348.2-.113.4-.222.6-.329-.031-.253-.056-.49-.082-.725-.027-.255-.054-.51-.088-.764a.773.773,0,0,1,.445-.858c.228-.121.455-.245.681-.373.21-.115.418-.233.632-.344-.031-.231-.054-.453-.078-.673-.027-.245-.053-.49-.088-.733a.87.87,0,0,1,.5-.98c.371-.185.731-.387,1.1-.6L37,22.468l-.021-.185c-.041-.4-.082-.809-.14-1.212a.889.889,0,0,1,.525-1c.231-.117.457-.241.683-.368.181-.1.362-.2.545-.3-.029-.226-.051-.44-.074-.655-.027-.257-.054-.515-.089-.774a.84.84,0,0,1,.486-.947c.375-.194.747-.4,1.144-.626l.123-.066-.191-.593-2.052.224-.387-.7c-.208-.371-.414-.741-.611-1.118-.235.033-.457.054-.679.078-.247.027-.5.053-.741.088a.836.836,0,0,1-.955-.486c-.1-.194-.206-.387-.315-.58-.124-.222-.251-.445-.366-.675-.255.025-.513.053-.772.08-.216.019-.434.041-.648.076a.871.871,0,0,1-.972-.51c-.187-.362-.385-.712-.583-1.068l-.1-.173L30.652,11c-.457.051-.908.1-1.361.132a.965.965,0,0,1-.8-.406c-.171-.282-.329-.568-.486-.852-.088-.161-.177-.321-.268-.48-.093.008-.189.018-.284.029v0c.039.373.078.733.128,1.091a.828.828,0,0,1-.48.918c-.218.111-.432.231-.644.35s-.42.233-.634.344c.033.245.056.471.08.7.027.251.053.5.088.753a.824.824,0,0,1-.48.92c-.206.107-.406.218-.609.331-.224.124-.449.251-.679.366a6.7,6.7,0,0,1,.105.766c.023.216.045.432.076.648a.847.847,0,0,1-.486.953c-.228.117-.451.241-.675.368-.2.109-.391.22-.591.325.025.169.041.331.054.492a5.39,5.39,0,0,0,.082.644,1.091,1.091,0,0,1-.716,1.371,5.068,5.068,0,0,0-.473.233,4.58,4.58,0,0,1-.823.364,4.278,4.278,0,0,1-.922.136c-.152.01-.3.019-.451.041a.8.8,0,0,1-.885-.475c-.1-.2-.212-.389-.321-.585-.136-.241-.274-.484-.4-.733a10.159,10.159,0,0,1-1.5.193.884.884,0,0,1-.8-.412c-.266-.434-.51-.883-.745-1.336-.206.025-.4.047-.591.066-.274.027-.546.054-.819.1a.865.865,0,0,1-.982-.515c-.1-.2-.206-.387-.313-.578-.121-.214-.241-.428-.35-.646-.272.023-.537.051-.8.078-.21.021-.422.041-.632.072a.843.843,0,0,1-.951-.486c-.161-.317-.336-.628-.515-.943-.086.047-.171.089-.259.134.068.523.124,1.021.158,1.521a.932.932,0,0,1-.42.8c-.391.235-.793.459-1.2.683l-.123.066.023.214c.041.414.084.823.138,1.231a.826.826,0,0,1-.465.912c-.37.193-.729.393-1.093.6l-.194.105.019.177c.041.408.084.815.142,1.219a.881.881,0,0,1-.523,1c-.371.189-.733.393-1.093.6l-.132.076.023.226c.041.41.084.811.136,1.208a.842.842,0,0,1-.486.943c-.373.193-.741.4-1.134.62l-.132.072.191.593,2.052-.224.4.723c.2.366.4.725.6,1.093.212-.027.414-.049.615-.068.253-.025.508-.051.76-.093a.9.9,0,0,1,1.033.545c.181.358.379.706.576,1.058l.08.142.193-.021c.4-.041.8-.084,1.194-.138a.887.887,0,0,1,1,.511c.181.356.377.706.574,1.056l.1.181.235-.025c.4-.043.788-.082,1.179-.138a.852.852,0,0,1,.97.51c.113.22.231.434.352.648.111.2.222.395.325.6.521-.066,1.023-.126,1.523-.158a1,1,0,0,1,.8.414c.148.241.286.49.422.741.109.194.216.391.329.58.482-.033.965-.089,1.445-.156a.816.816,0,0,1,.914.473c.187.364.389.722.591,1.083l.111.2.222-.023c.383-.039.764-.076,1.144-.13a.9.9,0,0,1,1.037.533c.1.208.216.41.331.613s.239.42.344.638a3.616,3.616,0,0,1,.714-.123c.235-.025.471-.049.7-.084a1.208,1.208,0,0,1,.165-.014M27.926,9.382h0Z" transform="translate(0.958 7.944)" fill="#fff"/>
      <path id="Path_23586" data-name="Path 23586" d="M21.333,8.856a.375.375,0,0,1,.037.089c.123.828.123.828-.616,1.239-.29.159-.576.331-.873.478a.328.328,0,0,0-.208.393c.07.517.132,1.037.165,1.558a.454.454,0,0,1-.181.35q-.653.4-1.34.743a.37.37,0,0,0-.226.451c.07.48.1.968.171,1.449a.384.384,0,0,1-.251.469c-.424.214-.827.471-1.252.677a.4.4,0,0,0-.253.5c.062.387.093.778.136,1.167.062.568-.053.751-.6.9a1.947,1.947,0,0,1-.6.064c-.084-.006-.189-.115-.239-.2-.3-.523-.591-1.054-.891-1.591-.615.066-1.217.124-1.816.2a.3.3,0,0,1-.362-.185c-.233-.453-.5-.893-.731-1.346a.363.363,0,0,0-.44-.237c-.482.072-.97.1-1.451.173a.4.4,0,0,1-.49-.263c-.224-.445-.484-.873-.714-1.315a.3.3,0,0,0-.366-.185c-.6.076-1.2.134-1.816.2-.152-.274-.3-.541-.434-.782l15.644-5" transform="translate(5.375 8.367)" fill="#003e92"/>
      <path id="Path_23587" data-name="Path 23587" d="M15.874,20.162c-.037,0-.076,0-.111,0a.871.871,0,0,1-.638-.443c-.233-.4-.459-.811-.687-1.221l-.053-.1-.274.029c-.406.043-.809.086-1.212.138a.77.77,0,0,1-.856-.445c-.107-.21-.224-.416-.34-.624-.128-.229-.255-.459-.375-.692-.235.033-.455.056-.673.08-.241.023-.482.047-.722.088a.893.893,0,0,1-1-.527c-.117-.229-.243-.457-.37-.683-.1-.181-.2-.36-.3-.543-.391.051-.768.089-1.151.13l-.91.1-.881-1.585L21.95,8.55l.175.4-.445.194.455-.173.066.2c.15,1.023.053,1.217-.863,1.725l-.249.14c-.191.109-.381.214-.576.313.066.517.124,1.017.158,1.517a.929.929,0,0,1-.412.8c-.434.264-.879.51-1.332.739.031.241.053.453.074.663.025.251.051.5.091.749a.862.862,0,0,1-.513.978c-.194.1-.383.2-.572.311-.228.13-.453.257-.688.371a7.039,7.039,0,0,1,.121.85l.035.329a1.125,1.125,0,0,1-.963,1.42,2.43,2.43,0,0,1-.636.084m-.951-2.8.368.663c.216.391.432.78.653,1.163a1.469,1.469,0,0,0,.315-.047.732.732,0,0,0,.259-.1,1.892,1.892,0,0,0-.014-.276l-.035-.338c-.025-.27-.053-.539-.1-.8A.877.877,0,0,1,16.9,16.6c.214-.1.422-.222.632-.338s.4-.231.613-.335a6.338,6.338,0,0,1-.107-.76c-.023-.218-.045-.438-.076-.653a.843.843,0,0,1,.488-.953c.443-.224.881-.465,1.3-.723-.084-.414-.144-.922-.212-1.431a.8.8,0,0,1,.473-.893c.2-.1.4-.212.6-.325l.257-.144a2.813,2.813,0,0,0,.441-.268l0,0L6.839,14.4l.173-.019c.406-.045.811-.086,1.212-.14a.792.792,0,0,1,.86.443c.1.2.214.4.327.6.132.237.266.476.391.72.235-.039.5-.064.757-.091.226-.023.451-.047.675-.08a.844.844,0,0,1,.947.5c.119.233.247.461.375.69.105.189.21.377.311.568.391-.049.764-.089,1.144-.128Z" transform="translate(5.028 8.078)" fill="#fff"/>
      <path id="Path_23588" data-name="Path 23588" d="M30.017,25.542c-.346.519-.667,1.019-1.007,1.507a.319.319,0,0,0,0,.438c.245.336.467.688.7,1.035a.719.719,0,0,1-.222,1.161c-.154.111-.317.208-.5.327-.492-.327-.992-.646-1.476-.986a.366.366,0,0,0-.5-.006c-.395.286-.815.535-1.21.821a.382.382,0,0,1-.529.01c-.381-.284-.8-.517-1.179-.8a.423.423,0,0,0-.591.012c-.461.333-.945.634-1.424.951-.508-.336-1.007-.655-1.494-1a.347.347,0,0,0-.469,0c-.426.3-.862.593-1.307.863a.418.418,0,0,1-.364,0c-.455-.28-.889-.6-1.346-.873a.456.456,0,0,0-.393,0c-.447.27-.879.564-1.307.863a.326.326,0,0,1-.44,0c-.406-.29-.834-.548-1.239-.84a.386.386,0,0,0-.531-.006c-.471.34-.965.65-1.462.982-.488-.325-.98-.634-1.451-.974a.409.409,0,0,0-.56.01c-.465.331-.945.636-1.439.965-.475-.317-.957-.62-1.418-.953a.423.423,0,0,0-.591-.012c-.389.292-.813.537-1.21.821a.347.347,0,0,1-.469-.008c-.486-.338-.984-.661-1.484-.994-.578.383-1.14.758-1.779,1.182q-.5-.493-1.007-1c.373-.562.692-1.062,1.035-1.544a.369.369,0,0,0,0-.5c-.334-.475-.65-.965-.988-1.476.319-.48.63-.97.967-1.441a.409.409,0,0,0,.01-.56c-.34-.471-.65-.963-.974-1.451.338-.508.657-1.009,1-1.494a.349.349,0,0,0,0-.469c-.34-.486-.661-.984-1-1.488.342-.513.687-1.013,1-1.529a.449.449,0,0,0,0-.393c-.27-.447-.564-.881-.863-1.309A.314.314,0,0,1,.5,14.956c.167-.214.309-.447.476-.694.447.3.889.574,1.313.879a.367.367,0,0,0,.5-.006c.385-.276.8-.517,1.179-.8a.428.428,0,0,1,.6.01c.373.274.776.508,1.151.78a.383.383,0,0,0,.533.008c.4-.294.832-.552,1.241-.838a.331.331,0,0,1,.445,0c.426.3.86.6,1.307.865a.465.465,0,0,0,.4,0c.438-.263.863-.548,1.278-.846a.371.371,0,0,1,.5,0c.406.29.832.55,1.243.836a.331.331,0,0,0,.443.016,9.273,9.273,0,0,0,1.083-.745c.327-.313.545-.741.842-1.091a.616.616,0,0,0,0-.92c-.264-.317-.457-.694-.706-1.027a.341.341,0,0,1,.008-.469c.288-.408.546-.834.838-1.241a.367.367,0,0,0-.008-.5c-.284-.395-.531-.819-.821-1.21a.38.38,0,0,1,.01-.529c.286-.395.539-.813.821-1.21a.348.348,0,0,0,0-.475c-.3-.416-.562-.854-.858-1.27a.324.324,0,0,1,0-.44c.3-.416.564-.852.86-1.268a.35.35,0,0,0,.006-.473c-.3-.424-.583-.863-.893-1.326.29-.194.546-.383.821-.541a.347.347,0,0,1,.276.056c.451.288.887.6,1.344.875a.449.449,0,0,0,.393,0c.517-.315,1.015-.659,1.531-1,.49.325.98.638,1.455.972a.384.384,0,0,0,.531.01c.381-.282.8-.515,1.179-.8a.413.413,0,0,1,.587.01c.383.282.8.521,1.179.8a.367.367,0,0,0,.5-.01c.4-.29.832-.548,1.239-.838a.345.345,0,0,1,.469.006c.484.34.982.663,1.482,1L29.054.322l1.005,1c-.373.56-.692,1.062-1.035,1.544a.369.369,0,0,0,.006.5c.3.416.562.852.856,1.27a.3.3,0,0,1,0,.406c-.288.408-.545.836-.838,1.241a.409.409,0,0,0-.008.56c.34.473.65.965.974,1.451-.333.5-.644.992-.984,1.462a.386.386,0,0,0,.008.531c.29.4.55.832.84,1.239a.323.323,0,0,1,0,.438c-.3.428-.576.873-.877,1.3a.3.3,0,0,0,0,.408c.3.428.576.873.875,1.3a.326.326,0,0,1,0,.44c-.29.4-.55.832-.84,1.239a.384.384,0,0,0-.008.529c.34.473.651.965.984,1.464-.331.5-.65,1-.992,1.48a.364.364,0,0,0,.006.5c.334.475.65.965.986,1.47-.329.492-.65.992-.992,1.474a.369.369,0,0,0,.006.5c.334.475.65.965.986,1.47" transform="translate(0.304 0.304)" fill="#3f4547"/>
      <path id="Path_23589" data-name="Path 23589" d="M1.571,30.974,0,29.413.537,28.6c.241-.364.465-.706.7-1.04C1,27.211.784,26.886.564,26.556l-.48-.725.432-.651c.235-.362.473-.722.723-1.072C1.011,23.783.786,23.44.56,23.1l-.475-.718L.537,21.7c.231-.352.461-.7.7-1.042C.994,20.3.772,19.967.55,19.627l-.463-.7.451-.679c.247-.366.49-.731.718-1.1C.994,16.82.706,16.4.412,15.976a.784.784,0,0,1,.012-1.017c.105-.136.2-.284.3-.438l.424-.628.8.527c.3.2.6.395.895.6.189-.134.358-.243.525-.354.21-.134.42-.27.618-.422a.916.916,0,0,1,1.175.006c.185.138.377.263.57.389s.389.255.578.393A8,8,0,0,1,7,14.545c.173-.115.346-.228.517-.346a.815.815,0,0,1,1,0c.42.3.844.585,1.28.85.323-.259.737-.537,1.142-.827a.846.846,0,0,1,1.068,0c.212.152.43.294.648.436.183.121.368.241.546.368.124-.084.249-.161.373-.237a3.64,3.64,0,0,0,.585-.412,3.642,3.642,0,0,0,.432-.55,6.1,6.1,0,0,1,.377-.506.359.359,0,0,0,.089-.142.363.363,0,0,0-.093-.15,5.762,5.762,0,0,1-.441-.634c-.091-.14-.181-.282-.28-.42a.808.808,0,0,1,0-1.037c.128-.183.253-.373.377-.562.144-.216.284-.43.434-.642-.138-.2-.255-.375-.371-.554-.138-.21-.274-.42-.424-.622a.858.858,0,0,1,.006-1.1c.144-.2.278-.4.414-.609.124-.187.247-.373.375-.554-.15-.214-.284-.416-.416-.62s-.268-.406-.408-.6a.8.8,0,0,1,0-1c.15-.206.29-.42.43-.632s.263-.4.4-.593c-.21-.3-.4-.591-.6-.9l-.531-.8.638-.428c.208-.142.408-.278.616-.4a.775.775,0,0,1,.774.066c.187.119.366.239.545.358.263.175.523.35.792.513a11.016,11.016,0,0,1,1-.72l.677-.453.733.486c.338.224.673.445,1,.677a6.734,6.734,0,0,1,.552-.387c.2-.128.395-.255.581-.4A.891.891,0,0,1,23,.467c.191.14.391.268.589.4.183.119.366.239.541.364.22-.152.416-.28.611-.41s.406-.268.6-.408a.825.825,0,0,1,1.033.006c.323.226.653.447.988.667l.212.14L29.418,0,30.99,1.56l-.513.776c-.249.379-.482.731-.725,1.077.159.229.294.436.428.64s.268.408.408.609a.783.783,0,0,1,0,.968c-.134.187-.261.381-.387.574-.148.226-.3.451-.453.669.237.333.469.685.7,1.039L30.9,8.6l-.455.687c-.237.362-.471.72-.722,1.064a4.435,4.435,0,0,1,.451.611c.132.2.263.4.4.589a.8.8,0,0,1,0,1c-.146.208-.286.418-.424.632-.132.2-.264.4-.4.591.134.2.261.389.385.578.144.218.288.436.438.65a.8.8,0,0,1,0,1c-.138.193-.268.391-.4.591-.144.218-.288.436-.441.65.239.3.469.651.7,1.009l.463.7-.469.71c-.226.34-.449.683-.685,1.017.245.352.461.679.683,1.015l.471.71-.453.681c-.237.362-.476.723-.727,1.075a8.937,8.937,0,0,1,.716.988l.465.7-.465.7c-.229.348-.455.688-.687,1.025.163.228.309.451.457.677l.2.305a1.186,1.186,0,0,1-.34,1.826c-.117.084-.237.161-.366.245l-.416.272-.669-.443c-.356-.233-.712-.467-1.06-.71-.2.142-.395.27-.587.395s-.393.259-.583.4a.861.861,0,0,1-1.1,0c-.177-.13-.362-.251-.548-.371-.214-.138-.428-.278-.63-.43-.348.257-.692.48-1.037.706l-.687.451-.688-.453c-.35-.231-.694-.459-1.035-.7-.441.307-.863.587-1.3.852a.918.918,0,0,1-.869,0c-.228-.142-.449-.292-.673-.44s-.443-.3-.671-.436c-.327.264-.751.554-1.169.848a.8.8,0,0,1-1,0c-.2-.14-.4-.274-.6-.4-.218-.142-.434-.288-.644-.438-.313.245-.677.482-1.044.723l-.667.44-.669-.441c-.36-.235-.72-.469-1.066-.72-.338.255-.692.488-1.054.725l-.659.44-.679-.449c-.346-.228-.69-.455-1.025-.694-.233.146-.459.294-.688.443-.183.119-.366.239-.543.366a.825.825,0,0,1-1.031,0c-.329-.229-.663-.449-1-.673l-.208-.138Zm22.542-2.229a.945.945,0,0,1,.58.216c.185.138.379.264.574.391s.4.264.6.406a3.64,3.64,0,0,1,.572-.434c.2-.128.4-.259.591-.4a.846.846,0,0,1,1.068,0c.346.243.7.476,1.056.71l.14.091c.072-.047.142-.093.21-.142.284-.2.274-.239.1-.494l-.21-.315c-.156-.237-.311-.475-.478-.7a.8.8,0,0,1,0-1.005c.241-.346.475-.7.714-1.064l.109-.165-.109-.165c-.231-.346-.457-.688-.692-1.025a.848.848,0,0,1-.006-1.062c.245-.344.478-.694.71-1.048l.1-.144-.117-.175c-.228-.346-.451-.685-.685-1.013a.846.846,0,0,1,0-1.064c.237-.334.463-.679.69-1.025l.115-.175-.109-.165c-.226-.342-.447-.683-.686-1.011a.865.865,0,0,1,.006-1.1c.146-.2.284-.41.42-.62.123-.185.245-.37.373-.552-.148-.212-.28-.414-.412-.615s-.278-.422-.424-.63a.786.786,0,0,1,0-.968c.148-.21.292-.426.436-.646.13-.2.263-.4.4-.593-.132-.189-.253-.371-.373-.554-.136-.208-.274-.414-.42-.618a.862.862,0,0,1-.006-1.1c.241-.333.467-.677.694-1.027l.1-.154-.1-.154c-.224-.342-.447-.683-.685-1.009a.889.889,0,0,1,.01-1.132c.15-.206.288-.418.428-.634.117-.175.231-.35.352-.521-.132-.193-.253-.377-.375-.56-.14-.214-.28-.428-.428-.638a.843.843,0,0,1-.008-1.06c.249-.35.482-.706.733-1.089l.076-.113L29.3,1.25,27.577,2.4l-.751-.5c-.325-.214-.65-.43-.968-.651-.2.138-.393.266-.583.391s-.406.268-.6.408a.839.839,0,0,1-1.068.01c-.179-.13-.364-.251-.548-.371-.214-.142-.43-.282-.636-.434-.212.14-.428.28-.644.424-.185.117-.368.237-.543.368a.863.863,0,0,1-1.1,0c-.321-.226-.648-.44-.976-.657l-.2-.13-.138.091c-.379.257-.757.506-1.142.745a.936.936,0,0,1-.895,0c-.284-.171-.558-.356-.834-.539-.148-.1-.3-.2-.447-.3-.082.051-.159.105-.241.158.208.315.408.616.618.914a.82.82,0,0,1-.006,1.035c-.14.2-.274.4-.41.607s-.263.4-.4.6c.14.2.263.387.387.574.14.214.282.43.43.636a.836.836,0,0,1,0,1.039c-.134.189-.259.381-.387.572-.142.216-.284.432-.436.642a6.56,6.56,0,0,1,.443.626c.121.181.239.366.368.545a.849.849,0,0,1,.008,1.072c-.154.21-.3.426-.44.646-.121.181-.241.366-.368.546.1.142.191.278.276.418a5.618,5.618,0,0,0,.37.531,1.089,1.089,0,0,1-.006,1.544c-.113.134-.212.282-.313.428a4.43,4.43,0,0,1-.56.7,4.412,4.412,0,0,1-.751.543c-.132.08-.263.159-.387.247a.8.8,0,0,1-1-.012c-.191-.132-.379-.257-.57-.383-.218-.142-.436-.284-.65-.436-.43.307-.848.585-1.278.842a.941.941,0,0,1-.895,0c-.44-.263-.862-.55-1.28-.842-.169.115-.329.218-.486.323-.233.154-.467.305-.692.471a.861.861,0,0,1-1.107-.008c-.175-.126-.358-.245-.539-.364-.206-.136-.412-.272-.613-.418-.231.15-.459.3-.685.445-.175.115-.35.228-.519.35a.839.839,0,0,1-1.068.006c-.29-.21-.589-.4-.893-.6-.054.082-.109.161-.167.239.3.436.581.852.838,1.278a.926.926,0,0,1,0,.9c-.233.381-.484.757-.737,1.134l-.093.14.107.163c.233.352.463.7.7,1.046a.819.819,0,0,1,0,1.025c-.245.35-.48.7-.718,1.068l-.1.146.121.185c.218.331.434.663.665.982a.881.881,0,0,1-.008,1.126c-.243.34-.473.69-.7,1.04l-.078.119.126.189c.226.346.447.681.677,1.009a.846.846,0,0,1,0,1.062c-.237.333-.465.679-.706,1.048l-.1.148.443.438,1.653-1.1.336.136.473.315c.331.22.657.436.98.659.179-.126.352-.239.525-.352.21-.138.422-.274.622-.424a.9.9,0,0,1,1.167.006c.323.233.655.451.99.671l.144.093.124-.082c.35-.231.7-.459,1.033-.7a.888.888,0,0,1,1.126,0c.335.241.681.467,1.027.692l.138.091.134-.088c.356-.233.706-.463,1.044-.708a.867.867,0,0,1,1.1.008c.2.144.406.28.613.414.187.123.375.249.56.377.43-.3.848-.581,1.28-.84a.927.927,0,0,1,.893,0c.243.148.476.3.71.459.189.126.375.253.568.371.412-.253.815-.523,1.212-.8a.819.819,0,0,1,1.027,0c.346.243.7.478,1.06.714l.154.1.156-.1c.333-.218.663-.434.984-.663a1.016,1.016,0,0,1,.589-.22M15.659,1.155l0,0,0,0" fill="#fff"/>
      <path id="Path_23590" data-name="Path 23590" d="M2.009,13.647.881,12.9l.21-.208L12.834.893,13,1.031l-.152.189.179-.171.1.093c.548.762.55.869.025,1.659l-.156.235c-.13.2-.264.406-.408.6-.053.072-.054.08,0,.161.27.383.585.838.875,1.32a.686.686,0,0,1,0,.644c-.253.42-.535.844-.858,1.293-.066.091-.07.113.006.218.134.187.259.379.385.57.14.216.28.43.434.638a.615.615,0,0,1-.008.817c-.128.177-.247.36-.366.543-.142.216-.282.434-.436.64-.082.111-.089.142.008.274.167.224.321.459.475.694l.191.288a.894.894,0,0,1-.161,1.389,2.206,2.206,0,0,1-.568.377.653.653,0,0,1-.537-.086c-.395-.253-.784-.513-1.177-.776l-.214-.142-.334.22c-.354.233-.7.465-1.046.706a.539.539,0,0,1-.685,0c-.2-.144-.406-.278-.611-.412-.222-.148-.443-.294-.661-.447-.109-.078-.128-.07-.214-.01-.187.138-.381.263-.574.387-.214.142-.428.28-.632.434a.644.644,0,0,1-.844-.006c-.218-.158-.441-.3-.665-.451-.193-.126-.385-.253-.572-.383a.166.166,0,0,0-.062-.035.212.212,0,0,0-.07.037c-.362.251-.731.5-1.107.743Zm-.364-.827.364.241.284-.187c.37-.245.737-.486,1.1-.737a.552.552,0,0,1,.687,0c.185.13.371.253.56.377.231.152.461.3.683.463.134.1.163.089.268.012.214-.159.436-.3.657-.451.187-.121.373-.243.554-.373a.611.611,0,0,1,.784.008c.212.15.428.292.646.438s.416.272.622.416a.3.3,0,0,0,.062.037.438.438,0,0,0,.064-.037c.346-.241.7-.475,1.054-.71l.6-.4.484.323c.389.261.776.519,1.169.77a.313.313,0,0,0,.111.041,1.953,1.953,0,0,0,.4-.278c.327-.3.336-.387.086-.762l-.193-.292c-.15-.229-.3-.455-.459-.673a.646.646,0,0,1-.008-.854c.15-.2.284-.406.42-.613.123-.191.245-.379.377-.562.089-.123.086-.144.01-.245-.158-.212-.3-.436-.447-.657-.123-.187-.245-.371-.373-.552a.6.6,0,0,1-.006-.788c.317-.44.589-.852.836-1.258a.249.249,0,0,0,0-.146c-.28-.467-.589-.914-.854-1.289a.572.572,0,0,1,.006-.729c.138-.189.266-.383.393-.58l.158-.239c.335-.5.37-.556.091-.953l-.268.27Z" transform="translate(0.832 0.844)" fill="#fff"/>
      <rect id="Rectangle_9125" data-name="Rectangle 9125" width="42.304" height="50" fill="none"/>
    </g>
  </g>
</svg>
